<svg xmlns="http://www.w3.org/2000/svg" viewBox="0 0 701.7 431.32"><defs><style>.cls-1{fill:#fff;}.cls-2{fill:#e0e0e0;}.cls-10,.cls-3{opacity:0.3;}.cls-4{fill:#ebebeb;}.cls-5{fill:#f5f5f5;}.cls-6{fill:#455a64;}.cls-7{fill:#263238;}.cls-8{fill:#ff725e;}.cls-9{fill:#fafafa;}.cls-11{fill:#ffbe9d;}.cls-12{fill:#eb996e;}</style></defs><title>skills</title><g id="Background_Complete" data-name="Background Complete"><rect class="cls-1" x="549.13" y="49.76" width="152.3" height="101.97"/><path class="cls-2" d="M573,181.57s0-.64,0-1.86,0-3,0-5.38c0-4.72,0-11.64,0-20.51,0-17.71.07-43.18.12-74.23l-.22.22,152.28.06h0l-.28-.28c0,36.33,0,70.88,0,102l.25-.25-109.72.12-31.35.07-8.34,0h-2.15l-.74,0h.71l2.12,0,8.29,0,31.29.06,109.89.13h.25v-.25c0-31.1,0-65.65,0-102v-.27h-.29L573,79.38h-.22v.21c0,31.11.09,56.62.12,74.37,0,8.84,0,15.75,0,20.46,0,2.33,0,4.12,0,5.34S573,181.57,573,181.57Z" transform="translate(-23.82 -29.83)"/><path class="cls-2" d="M725.25,88.69c0-.15-34.07-.27-76.08-.27s-76.09.12-76.09.27,34.06.28,76.09.28S725.25,88.85,725.25,88.69Z" transform="translate(-23.82 -29.83)"/><g class="cls-3"><path class="cls-2" d="M719.24,84.1a1.22,1.22,0,1,0,1.22-1.22A1.22,1.22,0,0,0,719.24,84.1Z" transform="translate(-23.82 -29.83)"/></g><g class="cls-3"><path class="cls-2" d="M715.06,84.1a1.22,1.22,0,1,0,2.44,0,1.22,1.22,0,0,0-2.44,0Z" transform="translate(-23.82 -29.83)"/></g><g class="cls-3"><path class="cls-2" d="M710.93,84.1a1.22,1.22,0,1,0,1.22-1.22A1.22,1.22,0,0,0,710.93,84.1Z" transform="translate(-23.82 -29.83)"/></g><rect class="cls-2" x="671.53" y="99.33" width="40.62" height="40.63" transform="translate(1359.86 209.45) rotate(-180)"/><path class="cls-2" d="M593.83,110.81c0,.15,15.85.27,35.39.27s35.39-.12,35.39-.27-15.84-.27-35.39-.27S593.83,110.66,593.83,110.81Z" transform="translate(-23.82 -29.83)"/><path class="cls-2" d="M593.83,118.36c0,.15,15.85.27,35.39.27s35.39-.12,35.39-.27-15.84-.27-35.39-.27S593.83,118.21,593.83,118.36Z" transform="translate(-23.82 -29.83)"/><path class="cls-2" d="M593.83,125.91c0,.15,15.85.27,35.39.27s35.39-.12,35.39-.27-15.84-.27-35.39-.27S593.83,125.76,593.83,125.91Z" transform="translate(-23.82 -29.83)"/><path class="cls-2" d="M622.78,133.46a9.91,9.91,0,0,0,1.64.11l4.49.08c3.78,0,9,.08,14.78.08s11,0,14.79-.08l4.48-.08a10,10,0,0,0,1.65-.11,10,10,0,0,0-1.65-.11l-4.48-.08c-3.78-.05-9-.08-14.79-.08s-11,0-14.78.08l-4.49.08A9.91,9.91,0,0,0,622.78,133.46Z" transform="translate(-23.82 -29.83)"/><rect class="cls-2" x="690.52" y="153.65" width="19.09" height="19.09" transform="translate(1376.31 296.56) rotate(-180)"/><rect class="cls-2" x="655.9" y="153.65" width="19.09" height="19.09" transform="translate(1307.06 296.56) rotate(-180)"/><rect class="cls-2" x="621.27" y="153.65" width="19.09" height="19.09" transform="translate(1237.81 296.56) rotate(-180)"/><rect class="cls-2" x="586.65" y="153.65" width="19.09" height="19.09" transform="translate(1168.57 296.56) rotate(-180)"/><rect class="cls-1" x="395.46" y="0.21" width="131.19" height="53.29"/><path class="cls-2" d="M419.29,83.33s0-.33,0-1,0-1.56,0-2.77c0-2.43,0-6,0-10.6,0-9.2,0-22.5.08-39l-.14.15,131.18.06h0l-.21-.21c0,18.66,0,36.68,0,53.29l.2-.2-94.06.09-27.29.06-7.3,0h-.05l7.26,0,27.24.05,94.2.1h.2V29.83h-.21l-131.18.07h-.15V30c0,16.51.06,29.84.08,39.06,0,4.58,0,8.15,0,10.57,0,1.2,0,2.11,0,2.74S419.29,83.33,419.29,83.33Z" transform="translate(-23.82 -29.83)"/><path class="cls-2" d="M550.35,37.23c0-.12-29.33-.21-65.49-.21s-65.5.09-65.5.21,29.32.21,65.5.21S550.35,37.34,550.35,37.23Z" transform="translate(-23.82 -29.83)"/><g class="cls-3"><path class="cls-4" d="M544.85,34a1,1,0,1,0,1-.95A1,1,0,0,0,544.85,34Z" transform="translate(-23.82 -29.83)"/></g><g class="cls-3"><path class="cls-4" d="M541.59,34a1,1,0,1,0,.95-.95A1,1,0,0,0,541.59,34Z" transform="translate(-23.82 -29.83)"/></g><g class="cls-3"><circle class="cls-4" cx="515.5" cy="4.18" r="0.95"/></g><rect class="cls-2" x="507.64" y="45.89" width="31.69" height="31.69" transform="translate(1023.15 93.63) rotate(-180)"/><path class="cls-2" d="M428.36,54.38c0,.12,16.31.21,36.42.21s36.42-.09,36.42-.21-16.3-.21-36.42-.21S428.36,54.27,428.36,54.38Z" transform="translate(-23.82 -29.83)"/><path class="cls-2" d="M428.36,60.84c0,.11,16.31.2,36.42.2s36.42-.09,36.42-.2-16.3-.21-36.42-.21S428.36,60.72,428.36,60.84Z" transform="translate(-23.82 -29.83)"/><path class="cls-2" d="M454.31,67.29a1.68,1.68,0,0,0,.48,0l1.36,0,5,.07,16.57.06,16.58-.06,5-.07,1.36,0a1.61,1.61,0,0,0,.48,0,2.2,2.2,0,0,0-.48,0l-1.36,0-5-.06-16.58-.07-16.57.07-5,.06-1.36,0A2.32,2.32,0,0,0,454.31,67.29Z" transform="translate(-23.82 -29.83)"/><path class="cls-2" d="M65.32,101.16a4.21,4.21,0,0,0-.74-.85l-2.16-2.16c-1.83-1.82-4.39-4.3-7.24-7l-.06-.06v.36c2.87-2.66,5.45-5.09,7.3-6.87l2.16-2.12a4.44,4.44,0,0,0,.75-.83,5,5,0,0,0-.88.68l-2.27,2c-1.91,1.71-4.53,4.1-7.4,6.76l-.19.19.19.18.07.06c2.84,2.72,5.44,5.16,7.34,6.9l2.27,2.06A5.76,5.76,0,0,0,65.32,101.16Z" transform="translate(-23.82 -29.83)"/><path class="cls-2" d="M87.47,81.62a5.21,5.21,0,0,0,.75.84l2.15,2.17c1.84,1.81,4.4,4.29,7.25,7l.06.06v-.37c-2.87,2.67-5.44,5.1-7.29,6.88l-2.17,2.12a5.08,5.08,0,0,0-.75.83,4.59,4.59,0,0,0,.88-.69l2.28-2c1.91-1.71,4.52-4.1,7.39-6.77l.2-.18-.2-.18L98,91.27c-2.85-2.71-5.45-5.15-7.34-6.9l-2.27-2.05A4,4,0,0,0,87.47,81.62Z" transform="translate(-23.82 -29.83)"/><path class="cls-2" d="M81.79,105.76c.13-.05-2.2-6.58-5.19-14.59S71.06,76.7,70.93,76.75s2.2,6.58,5.2,14.59S81.66,105.81,81.79,105.76Z" transform="translate(-23.82 -29.83)"/><path class="cls-2" d="M40.15,119.74s0-.38,0-1.09,0-1.78,0-3.14c0-2.76,0-6.79,0-11.91,0-10.25.07-24.9.11-42.56l-.21.21,72.05,0h0L112,61c0,21.22,0,41.26,0,58.7l.22-.22-52,.11-14.75.06-3.91,0H40.15l.33,0h1l3.87,0,14.69.06,52.17.11h.23v-.23c0-17.44,0-37.48,0-58.7v-.25h-.25l-72.05,0h-.21V61c.05,17.71.09,32.41.11,42.69,0,5.11,0,9.11.06,11.86,0,1.35,0,2.39,0,3.11S40.15,119.74,40.15,119.74Z" transform="translate(-23.82 -29.83)"/><path class="cls-2" d="M39.59,69.75c0,.14,16.26.25,36.32.25s36.32-.11,36.32-.25S96,69.5,75.91,69.5,39.59,69.61,39.59,69.75Z" transform="translate(-23.82 -29.83)"/><path class="cls-2" d="M106.32,65.46a1,1,0,1,0,1-1A1,1,0,0,0,106.32,65.46Z" transform="translate(-23.82 -29.83)"/><path class="cls-2" d="M102.79,65.46a1,1,0,1,0,1-1A1,1,0,0,0,102.79,65.46Z" transform="translate(-23.82 -29.83)"/><path class="cls-2" d="M99.25,65.46a1,1,0,1,0,1-1A1,1,0,0,0,99.25,65.46Z" transform="translate(-23.82 -29.83)"/><path class="cls-4" d="M56.75,377.9c-4.16-2.15-9.06-2.43-13.69-1.66-2.48.41-5.07,1.15-6.76,3s-2,5.14-.07,6.75a6.57,6.57,0,0,0,4.27,1.08c3.62,0,7.63-.68,10.52,1.5,1.65,1.24,2.75,3.3,4.72,3.91a4.66,4.66,0,0,0,5.13-2.28,8,8,0,0,0,.58-5.88A9,9,0,0,0,56.75,377.9Z" transform="translate(-23.82 -29.83)"/><path class="cls-4" d="M66.29,359.49c-2.54,3.63-7.49,2.43-9.79.21s-3.26-5.44-4.14-8.5c-2-7-4-14.36-2.55-21.5a11.88,11.88,0,0,1,2.74-5.85,6.24,6.24,0,0,1,5.91-2c2.5.66,4,3.1,5.17,5.42a51.26,51.26,0,0,1,5.06,22c0,3.54-.4,7.25-2.4,10.18" transform="translate(-23.82 -29.83)"/><path class="cls-4" d="M73.28,364.7c-2.76-3.28-3.29-8.06-2.06-12.17a23.46,23.46,0,0,1,7.21-10.46,38.83,38.83,0,0,1,12.92-7.62,13.79,13.79,0,0,1,5.8-1,6.11,6.11,0,0,1,4.88,3c1.36,2.59,0,5.74-1.36,8.3a98.45,98.45,0,0,1-8.48,12.92c-2.54,3.27-5.45,6.51-9.32,8s-7.9,1.31-10-1.38" transform="translate(-23.82 -29.83)"/><path class="cls-2" d="M66.46,414.34a9.33,9.33,0,0,1-.23-1.66c-.11-1.2-.26-2.71-.44-4.51a64.47,64.47,0,0,0-1-6.61,52.54,52.54,0,0,0-2.4-7.81,29.15,29.15,0,0,0-4-7.06,15,15,0,0,0-5-4.19,14.22,14.22,0,0,0-4.24-1.32,7.72,7.72,0,0,1-1.65-.24,8.69,8.69,0,0,1,1.68,0,12.78,12.78,0,0,1,4.42,1.15,15,15,0,0,1,5.32,4.22A28.22,28.22,0,0,1,63,393.5a49,49,0,0,1,2.39,7.93,55.9,55.9,0,0,1,.87,6.7c.15,1.92.2,3.47.23,4.54A7.58,7.58,0,0,1,66.46,414.34Z" transform="translate(-23.82 -29.83)"/><path class="cls-2" d="M66.15,410.87a3.39,3.39,0,0,1,0-.77v-2.19c0-1.91,0-4.66-.09-8.06-.17-6.8-.76-14.12-1.89-24.43-1.07-9.71-2.51-21-4-28.34-.33-1.67-.66-3.17-1-4.48s-.55-2.46-.79-3.38-.38-1.57-.51-2.13a3.75,3.75,0,0,1-.14-.76,3.54,3.54,0,0,1,.27.72q.26.82.63,2.1c.29.92.58,2,.91,3.36s.7,2.81,1.06,4.47a248.63,248.63,0,0,1,4.23,26.29c1.13,10.34,1.64,19.76,1.69,26.57,0,3.41,0,6.17-.12,8.07,0,.89-.1,1.62-.13,2.19A2.76,2.76,0,0,1,66.15,410.87Z" transform="translate(-23.82 -29.83)"/><path class="cls-2" d="M66.11,392.71a14.38,14.38,0,0,1,0-2.29c.09-1.47.29-3.6.7-6.2a82.83,82.83,0,0,1,2-9,74,74,0,0,1,3.78-10.7,57.22,57.22,0,0,1,11.1-17.29,26.56,26.56,0,0,1,2.62-2.42c.4-.34.75-.68,1.11-.95l1-.7a15.08,15.08,0,0,1,1.93-1.23,68.67,68.67,0,0,0-6.32,5.64,59.9,59.9,0,0,0-10.82,17.22,82.36,82.36,0,0,0-3.8,10.6c-1,3.32-1.65,6.37-2.15,8.95s-.75,4.68-.91,6.14A16.92,16.92,0,0,1,66.11,392.71Z" transform="translate(-23.82 -29.83)"/><polygon class="cls-2" points="59.83 394.9 58.01 419.83 25.99 419.83 24.17 394.9 59.83 394.9"/><rect class="cls-2" x="20.35" y="385.08" width="42.57" height="9.82"/><polygon class="cls-4" points="62.93 418.87 62.93 421.6 60.93 421.6 21.06 421.6 21.06 418.87 62.93 418.87"/><polygon class="cls-2" points="58.97 426.39 60.93 421.6 22.58 421.6 24.87 426.39 58.97 426.39"/><path class="cls-5" d="M48.59,432.88s0,.09.15.23l.48.64,1.86,2.38.09.11.08-.11,4.58-6.34h-.26l4.51,6.39.14.2.16-.19,5.35-6.36h-.31l.3.37,4.78,6,.16.2.15-.21,4.51-6.39-.26,0,5.56,6.33.1.11.07-.12,1.74-2.93.45-.78a2.24,2.24,0,0,0,.14-.27s-.08.07-.19.24-.29.45-.5.75L80.61,436h.17l-5.47-6.41-.14-.16-.12.17L70.49,436h.31c-1.51-1.91-3.12-3.92-4.77-6l-.3-.37-.15-.19-.16.19L60.09,436h.3l-4.56-6.36-.13-.18-.13.18L51.08,436h.16l-1.94-2.33-.52-.6A1.17,1.17,0,0,0,48.59,432.88Z" transform="translate(-23.82 -29.83)"/><path class="cls-5" d="M47.55,424.57c0,.11,8,.2,17.92.2s17.92-.09,17.92-.2-8-.2-17.92-.2S47.55,424.46,47.55,424.57Z" transform="translate(-23.82 -29.83)"/><path class="cls-5" d="M45.93,451.7c0,.11,8.72.2,19.48.2s19.47-.09,19.47-.2-8.71-.2-19.47-.2S45.93,451.59,45.93,451.7Z" transform="translate(-23.82 -29.83)"/></g><g id="Device"><path class="cls-6" d="M137.14,104.09H633.38A14.57,14.57,0,0,1,648,118.66V444.78a6.74,6.74,0,0,1-6.74,6.74H130.32a7.75,7.75,0,0,1-7.75-7.75V118.66a14.57,14.57,0,0,1,14.57-14.57Z" transform="translate(746.7 525.78) rotate(-180)"/><path class="cls-6" d="M114.44,425.83H656.2a13.72,13.72,0,0,1,13.72,13.72v16.68a0,0,0,0,1,0,0H100.71a0,0,0,0,1,0,0V439.55A13.72,13.72,0,0,1,114.44,425.83Z" transform="translate(746.81 852.22) rotate(-180)"/><rect class="cls-2" x="138.15" y="117.9" width="495.7" height="293.4" transform="translate(748.17 499.36) rotate(-180)"/><polygon class="cls-7" points="413.23 395.99 406.17 407.23 306.78 407.23 300.22 395.99 413.23 395.99"/><rect class="cls-7" x="151.66" y="134.9" width="467.48" height="276.4" transform="translate(746.97 516.36) rotate(-180)"/><path class="cls-2" d="M583.27,403.18c.25,0,.44-58.86.44-131.46s-.19-131.49-.44-131.49-.43,58.86-.43,131.49S583,403.18,583.27,403.18Z" transform="translate(-23.82 -29.83)"/><path class="cls-2" d="M592.7,164.07c0,.24,3.4.44,7.6.44s7.59-.2,7.59-.44-3.4-.44-7.59-.44S592.7,163.83,592.7,164.07Z" transform="translate(-23.82 -29.83)"/><path class="cls-2" d="M592.12,149.15c0,.24,3.4.44,7.59.44s7.6-.2,7.6-.44-3.4-.44-7.6-.44S592.12,148.91,592.12,149.15Z" transform="translate(-23.82 -29.83)"/><path class="cls-2" d="M592.7,180.15c0,.24,3.4.44,7.6.44s7.59-.2,7.59-.44-3.4-.44-7.59-.44S592.7,179.91,592.7,180.15Z" transform="translate(-23.82 -29.83)"/><path class="cls-2" d="M592.7,196.23c0,.25,3.4.44,7.6.44s7.59-.19,7.59-.44-3.4-.43-7.59-.43S592.7,196,592.7,196.23Z" transform="translate(-23.82 -29.83)"/><path class="cls-2" d="M592.7,212.32c0,.24,3.4.44,7.6.44s7.59-.2,7.59-.44-3.4-.44-7.59-.44S592.7,212.07,592.7,212.32Z" transform="translate(-23.82 -29.83)"/><path class="cls-2" d="M592.7,228.4c0,.24,3.4.44,7.6.44s7.59-.2,7.59-.44-3.4-.44-7.59-.44S592.7,228.16,592.7,228.4Z" transform="translate(-23.82 -29.83)"/><path class="cls-2" d="M592.7,244.48c0,.24,3.4.44,7.6.44s7.59-.2,7.59-.44-3.4-.44-7.59-.44S592.7,244.24,592.7,244.48Z" transform="translate(-23.82 -29.83)"/><path class="cls-2" d="M592.7,260.56c0,.25,3.4.44,7.6.44s7.59-.19,7.59-.44-3.4-.43-7.59-.43S592.7,260.32,592.7,260.56Z" transform="translate(-23.82 -29.83)"/><path class="cls-2" d="M592.7,276.65c0,.24,3.4.43,7.6.43s7.59-.19,7.59-.43-3.4-.44-7.59-.44S592.7,276.4,592.7,276.65Z" transform="translate(-23.82 -29.83)"/><path class="cls-2" d="M592.7,292.73c0,.24,3.4.44,7.6.44s7.59-.2,7.59-.44-3.4-.44-7.59-.44S592.7,292.49,592.7,292.73Z" transform="translate(-23.82 -29.83)"/><path class="cls-2" d="M592.7,308.81c0,.24,3.4.44,7.6.44s7.59-.2,7.59-.44-3.4-.44-7.59-.44S592.7,308.57,592.7,308.81Z" transform="translate(-23.82 -29.83)"/><path class="cls-2" d="M592.7,324.89c0,.25,3.4.44,7.6.44s7.59-.19,7.59-.44-3.4-.43-7.59-.43S592.7,324.65,592.7,324.89Z" transform="translate(-23.82 -29.83)"/><path class="cls-2" d="M592.7,341c0,.24,3.4.43,7.6.43s7.59-.19,7.59-.43-3.4-.44-7.59-.44S592.7,340.73,592.7,341Z" transform="translate(-23.82 -29.83)"/><path class="cls-2" d="M592.7,357.06c0,.24,3.4.44,7.6.44s7.59-.2,7.59-.44-3.4-.44-7.59-.44S592.7,356.82,592.7,357.06Z" transform="translate(-23.82 -29.83)"/><path class="cls-2" d="M592.7,373.14c0,.24,3.4.44,7.6.44s7.59-.2,7.59-.44-3.4-.44-7.59-.44S592.7,372.9,592.7,373.14Z" transform="translate(-23.82 -29.83)"/><path class="cls-2" d="M592.7,389.22c0,.25,3.4.44,7.6.44s7.59-.19,7.59-.44-3.4-.44-7.59-.44S592.7,389,592.7,389.22Z" transform="translate(-23.82 -29.83)"/><path class="cls-8" d="M531.83,163.12c0,.24,8.82.44,19.71.44s19.7-.2,19.7-.44-8.82-.44-19.7-.44S531.83,162.88,531.83,163.12Z" transform="translate(-23.82 -29.83)"/><path class="cls-8" d="M531.83,389.22c0,.25,8.82.44,19.71.44s19.7-.19,19.7-.44-8.82-.44-19.7-.44S531.83,389,531.83,389.22Z" transform="translate(-23.82 -29.83)"/><path class="cls-8" d="M476.94,196.23c0,.25,16.51.44,36.87.44s36.87-.19,36.87-.44-16.5-.43-36.87-.43S476.94,196,476.94,196.23Z" transform="translate(-23.82 -29.83)"/><path class="cls-2" d="M391.67,196.23c0,.25,16.51.44,36.87.44s36.87-.19,36.87-.44-16.5-.43-36.87-.43S391.67,196,391.67,196.23Z" transform="translate(-23.82 -29.83)"/><path class="cls-2" d="M424.26,212.32c0,.24,24.33.44,54.33.44s54.35-.2,54.35-.44-24.33-.44-54.35-.44S424.26,212.07,424.26,212.32Z" transform="translate(-23.82 -29.83)"/><path class="cls-2" d="M424.26,228.4c0,.24,24.33.44,54.33.44s54.35-.2,54.35-.44-24.33-.44-54.35-.44S424.26,228.16,424.26,228.4Z" transform="translate(-23.82 -29.83)"/><path class="cls-2" d="M349.45,276.65c0,.24,24.33.43,54.34.43s54.34-.19,54.34-.43-24.33-.44-54.34-.44S349.45,276.4,349.45,276.65Z" transform="translate(-23.82 -29.83)"/><path class="cls-2" d="M381.73,244.48c0,.24,24.33.44,54.34.44s54.34-.2,54.34-.44-24.33-.44-54.34-.44S381.73,244.24,381.73,244.48Z" transform="translate(-23.82 -29.83)"/><path class="cls-2" d="M248.92,244.48c0,.24,24.33.44,54.34.44s54.34-.2,54.34-.44-24.33-.44-54.34-.44S248.92,244.24,248.92,244.48Z" transform="translate(-23.82 -29.83)"/><path class="cls-9" d="M295.11,212.32c0,.24,24.33.43,54.33.43s54.35-.19,54.35-.43-24.33-.44-54.35-.44S295.11,212.07,295.11,212.32Z" transform="translate(-23.82 -29.83)"/><path class="cls-9" d="M220,276.65c0,.24,24.34.43,54.34.43s54.35-.19,54.35-.43-24.33-.44-54.35-.44S220,276.4,220,276.65Z" transform="translate(-23.82 -29.83)"/><path class="cls-6" d="M235,228.4c0,.24,37.78.44,84.37.44s84.39-.2,84.39-.44S366,228,319.4,228,235,228.16,235,228.4Z" transform="translate(-23.82 -29.83)"/><path class="cls-9" d="M531.83,180.15c0,.24,8.82.44,19.71.44s19.7-.2,19.7-.44-8.82-.44-19.7-.44S531.83,179.91,531.83,180.15Z" transform="translate(-23.82 -29.83)"/><path class="cls-9" d="M531.83,373.14c0,.24,8.82.44,19.71.44s19.7-.2,19.7-.44-8.82-.44-19.7-.44S531.83,372.9,531.83,373.14Z" transform="translate(-23.82 -29.83)"/><path class="cls-9" d="M512.3,244.48c0,.24,8.83.44,19.71.44s19.71-.2,19.71-.44S542.9,244,532,244,512.3,244.24,512.3,244.48Z" transform="translate(-23.82 -29.83)"/><path class="cls-8" d="M196.41,244.48c0,.24,8.82.44,19.71.44s19.7-.2,19.7-.44S227,244,216.12,244,196.41,244.24,196.41,244.48Z" transform="translate(-23.82 -29.83)"/><path class="cls-8" d="M476.94,308.72c0,.24,16.51.44,36.87.44s36.87-.2,36.87-.44-16.5-.44-36.87-.44S476.94,308.47,476.94,308.72Z" transform="translate(-23.82 -29.83)"/><path class="cls-2" d="M391.67,308.72c0,.24,16.51.44,36.87.44s36.87-.2,36.87-.44-16.5-.44-36.87-.44S391.67,308.47,391.67,308.72Z" transform="translate(-23.82 -29.83)"/><path class="cls-2" d="M424.26,324.8c0,.24,24.33.44,54.33.44s54.35-.2,54.35-.44-24.33-.44-54.35-.44S424.26,324.56,424.26,324.8Z" transform="translate(-23.82 -29.83)"/><path class="cls-2" d="M424.26,340.88c0,.24,24.33.44,54.33.44s54.35-.2,54.35-.44-24.33-.44-54.35-.44S424.26,340.64,424.26,340.88Z" transform="translate(-23.82 -29.83)"/><path class="cls-2" d="M381.73,357c0,.25,24.33.44,54.34.44s54.34-.19,54.34-.44-24.33-.43-54.34-.43S381.73,356.72,381.73,357Z" transform="translate(-23.82 -29.83)"/><path class="cls-2" d="M248.92,357c0,.25,24.33.44,54.34.44s54.34-.19,54.34-.44-24.33-.43-54.34-.43S248.92,356.72,248.92,357Z" transform="translate(-23.82 -29.83)"/><path class="cls-9" d="M295.11,324.8c0,.24,24.33.44,54.33.44s54.35-.2,54.35-.44-24.33-.44-54.35-.44S295.11,324.56,295.11,324.8Z" transform="translate(-23.82 -29.83)"/><path class="cls-6" d="M235,340.88c0,.24,37.78.44,84.37.44s84.39-.2,84.39-.44-37.78-.44-84.39-.44S235,340.64,235,340.88Z" transform="translate(-23.82 -29.83)"/><path class="cls-9" d="M512.3,357c0,.25,8.83.44,19.71.44s19.71-.19,19.71-.44-8.82-.43-19.71-.43S512.3,356.72,512.3,357Z" transform="translate(-23.82 -29.83)"/><path class="cls-8" d="M196.41,357c0,.25,8.82.44,19.71.44s19.7-.19,19.7-.44-8.82-.43-19.7-.43S196.41,356.72,196.41,357Z" transform="translate(-23.82 -29.83)"/><path class="cls-7" d="M185.91,436c0,.14,100.64.26,224.75.26s224.78-.12,224.78-.26-100.62-.26-224.78-.26S185.91,435.83,185.91,436Z" transform="translate(-23.82 -29.83)"/></g><g id="Plant"><path class="cls-8" d="M652.27,347.83a57.06,57.06,0,0,1,54.45-14.95,99.15,99.15,0,0,1-55.09,17.21" transform="translate(-23.82 -29.83)"/><path class="cls-8" d="M670.74,282.43c-2.27-16.05,4-34.1,16-45.76.4,15.9-6.32,33.79-16,45.76" transform="translate(-23.82 -29.83)"/><path class="cls-8" d="M661.13,312.74a85.68,85.68,0,0,1,39.35-37.61A54.07,54.07,0,0,1,661,312.91" transform="translate(-23.82 -29.83)"/><path class="cls-8" d="M659.14,318.58c9.69.28,19.5-.06,28.87-2.54s18.35-7.25,24.59-14.67a96.48,96.48,0,0,0-53.31,16.27" transform="translate(-23.82 -29.83)"/><path class="cls-8" d="M664.06,299.32c-4.92-18.44-13-31.19-27.52-41.52a38.34,38.34,0,0,0,27.52,41.52" transform="translate(-23.82 -29.83)"/><path class="cls-8" d="M627.48,331.12a27.29,27.29,0,0,1,16.58-25.28c-.81,9.52-8.28,20.53-16.58,25.28" transform="translate(-23.82 -29.83)"/><path class="cls-8" d="M622.85,315.57a40.66,40.66,0,0,0-26.64-34.69c3.35,15.41,12.26,28.24,26.64,34.69" transform="translate(-23.82 -29.83)"/><path class="cls-8" d="M629.83,343.16c-3.42-4.89-9-7.93-14.77-9.44s-11.8-1.65-17.76-1.77a41.53,41.53,0,0,0,32.07,13.36" transform="translate(-23.82 -29.83)"/><path class="cls-8" d="M636.75,382.46a45.48,45.48,0,0,0-55.56,26.32c20.18-3.83,40.1-12.8,55.56-26.32" transform="translate(-23.82 -29.83)"/><path class="cls-8" d="M658.91,368.8c-3.36,9.91-2.71,21.89,4.74,30.43a36.38,36.38,0,0,0-4.74-30.43" transform="translate(-23.82 -29.83)"/><path class="cls-8" d="M672,363.29a37.28,37.28,0,0,0,20.59,30.26,2.36,2.36,0,0,0,1.83.3c.9-.37,1-1.61.87-2.59-1.46-12.69-10.86-25-23.29-28" transform="translate(-23.82 -29.83)"/><path class="cls-8" d="M680.55,362a30.58,30.58,0,0,0,44.67.23c-14.2-1.55-30.58-2.59-44.67-.23" transform="translate(-23.82 -29.83)"/><path class="cls-7" d="M682.68,248.49a2.68,2.68,0,0,1-.13.42l-.43,1.2c-.41,1.08-1,2.62-1.72,4.6s-1.64,4.44-2.66,7.29q-.78,2.13-1.65,4.56l-1.77,5.13c-2.52,7.19-5.31,15.82-8.33,25.43s-6.07,20.25-9.13,31.47-5.69,22-8,31.78-4.11,18.69-5.49,26.19q-.52,2.81-1,5.34t-.81,4.77c-.51,3-1,5.55-1.25,7.66s-.57,3.71-.74,4.85q-.14.79-.21,1.26a2.72,2.72,0,0,1-.09.43,2.09,2.09,0,0,1,0-.44q0-.46.15-1.26c.15-1.14.37-2.78.64-4.87s.68-4.69,1.16-7.68c.24-1.49.5-3.09.77-4.78s.63-3.48,1-5.35c1.33-7.51,3.2-16.39,5.38-26.23s4.92-20.58,7.94-31.82,6.19-21.84,9.18-31.47,5.87-18.23,8.44-25.4q.94-2.7,1.81-5.13t1.68-4.55c1-2.84,2-5.28,2.76-7.26l1.8-4.56.49-1.18A2.49,2.49,0,0,1,682.68,248.49Z" transform="translate(-23.82 -29.83)"/><path class="cls-7" d="M604.69,289.11a1.44,1.44,0,0,1,.24.23l.68.71c.59.63,1.45,1.58,2.53,2.83A99.83,99.83,0,0,1,616.49,304a74.82,74.82,0,0,1,8.75,18.71c2.34,7.44,3.79,15.9,5.24,24.75,2.89,17.7,6.43,33.56,9,45,1.3,5.71,2.34,10.34,3.08,13.58.35,1.57.62,2.81.82,3.69.08.4.15.72.2,1a1.68,1.68,0,0,1,0,.33,1.41,1.41,0,0,1-.11-.32c-.06-.24-.14-.56-.25-.95l-.92-3.67c-.77-3.24-1.88-7.85-3.24-13.55-2.66-11.45-6.27-27.3-9.16-45-1.44-8.85-2.88-17.29-5.18-24.7a75.68,75.68,0,0,0-8.59-18.64A108.93,108.93,0,0,0,608,293c-1-1.26-1.87-2.23-2.44-2.88l-.64-.75C604.75,289.21,604.68,289.12,604.69,289.11Z" transform="translate(-23.82 -29.83)"/><path class="cls-7" d="M684.8,361.4a1.88,1.88,0,0,1-.52.09l-1.47.17-1.06.1-1.25.19c-.9.13-1.93.27-3,.51l-1.76.36-1.89.47c-1.32.3-2.68.78-4.12,1.22a60.43,60.43,0,0,0-9,4,50.3,50.3,0,0,0-8.06,5.6,40.36,40.36,0,0,0-3.1,3,32.56,32.56,0,0,0-2.44,2.82,29.66,29.66,0,0,0-1.82,2.5,18.77,18.77,0,0,0-1.24,2l-.75,1.27c-.18.29-.28.44-.3.43a2.75,2.75,0,0,1,.2-.47l.67-1.33a16.66,16.66,0,0,1,1.17-2,26.41,26.41,0,0,1,1.76-2.56,31.22,31.22,0,0,1,2.42-2.9,39,39,0,0,1,3.1-3,48.89,48.89,0,0,1,8.12-5.69,58,58,0,0,1,9.1-4c1.46-.42,2.84-.89,4.17-1.17l1.91-.45,1.78-.32c1.13-.23,2.17-.34,3.08-.44l1.26-.15,1.08-.05,1.48-.06A1.93,1.93,0,0,1,684.8,361.4Z" transform="translate(-23.82 -29.83)"/><path class="cls-7" d="M688.84,289.45a7,7,0,0,1-1,1L684.89,293c-2.48,2.12-5.93,5-9.77,8.21s-7.33,6-9.88,8.08l-3,2.41a7.48,7.48,0,0,1-1.16.82,7.11,7.11,0,0,1,1-1L665,309c2.48-2.12,5.94-5,9.77-8.2s7.33-6,9.87-8.08l3-2.41A6.94,6.94,0,0,1,688.84,289.45Z" transform="translate(-23.82 -29.83)"/><path class="cls-7" d="M692.33,308.23c0,.15-7.41,2.48-16.65,5.2s-16.76,4.83-16.81,4.69,7.42-2.48,16.66-5.21S692.29,308.09,692.33,308.23Z" transform="translate(-23.82 -29.83)"/><path class="cls-7" d="M664.8,300.75a6.43,6.43,0,0,1-.77-1.07l-2-3c-1.67-2.52-4-6-6.84-9.63s-5.49-6.85-7.48-9.13l-2.36-2.69a6.57,6.57,0,0,1-.83-1,5.57,5.57,0,0,1,1,.88c.61.6,1.46,1.48,2.49,2.59,2.07,2.21,4.82,5.38,7.64,9.05s5.13,7.17,6.72,9.75c.79,1.29,1.42,2.35,1.82,3.09A7.08,7.08,0,0,1,664.8,300.75Z" transform="translate(-23.82 -29.83)"/><path class="cls-7" d="M638.91,311.18a26.69,26.69,0,0,1-1.75,2.88c-1.11,1.75-2.62,4.18-4.19,6.93s-2.88,5.29-3.82,7.15a25.89,25.89,0,0,1-1.58,3A18.11,18.11,0,0,1,628.8,328c.85-1.9,2.13-4.48,3.7-7.25s3.14-5.18,4.34-6.88A17.69,17.69,0,0,1,638.91,311.18Z" transform="translate(-23.82 -29.83)"/><path class="cls-7" d="M630.05,343.67c0,.07-1.46-.62-3.79-1.67s-5.58-2.42-9.25-3.7-7.07-2.25-9.54-2.88-4-1-4-1.05a4,4,0,0,1,1.11.11c.7.11,1.72.3,3,.57a83.22,83.22,0,0,1,18.87,6.6c1.14.57,2.06,1.06,2.68,1.42A4.31,4.31,0,0,1,630.05,343.67Z" transform="translate(-23.82 -29.83)"/><path class="cls-7" d="M637,382.51s-.15.08-.45.16l-1.35.34-5,1.15a162.32,162.32,0,0,0-16.19,4.27,71.94,71.94,0,0,0-15.11,7.1c-1.81,1.15-3.21,2.17-4.16,2.9s-1.48,1.14-1.5,1.11.1-.14.33-.36.57-.54,1-.92a46.43,46.43,0,0,1,4.09-3.05,66.3,66.3,0,0,1,15.14-7.29,135.27,135.27,0,0,1,16.29-4.14l5-1A15.61,15.61,0,0,1,637,382.51Z" transform="translate(-23.82 -29.83)"/><path class="cls-7" d="M662.24,392.09c-.14,0-1-5.21-2-11.68s-1.59-11.74-1.44-11.76,1,5.21,2,11.68S662.39,392.07,662.24,392.09Z" transform="translate(-23.82 -29.83)"/><path class="cls-7" d="M688.5,382.56a29.42,29.42,0,0,1-2.37-2.81c-1.42-1.77-3.38-4.2-5.6-6.85s-4.29-5-5.78-6.7a25.84,25.84,0,0,1-2.36-2.82,4.27,4.27,0,0,1,.75.65c.46.43,1.1,1.09,1.89,1.91,1.57,1.64,3.68,4,5.91,6.61s4.15,5.13,5.5,7c.67.92,1.2,1.67,1.55,2.19A3.25,3.25,0,0,1,688.5,382.56Z" transform="translate(-23.82 -29.83)"/><polygon class="cls-8" points="595.19 377.07 595.19 390.05 598.44 390.05 609.97 426.44 635.54 426.44 646.71 390.4 651.04 390.05 651.04 377.07 595.19 377.07"/><g class="cls-3"><polygon points="595.19 377.07 595.19 390.05 598.44 390.05 609.97 426.44 635.54 426.44 646.71 390.4 651.04 390.05 651.04 377.07 595.19 377.07"/></g><path class="cls-7" d="M672.7,420.24c0,.15-11.29.27-25.22.27s-25.22-.12-25.22-.27,11.29-.27,25.22-.27S672.7,420.09,672.7,420.24Z" transform="translate(-23.82 -29.83)"/><path class="cls-7" d="M691.09,336.79a10,10,0,0,1-1.64.44L685,338.32c-3.78.93-9,2.35-14.61,4.25s-10.63,3.9-14.21,5.44l-4.23,1.85a11.07,11.07,0,0,1-1.58.64,10.67,10.67,0,0,1,1.48-.83c1-.5,2.4-1.19,4.17-2a149.46,149.46,0,0,1,14.2-5.61,145.67,145.67,0,0,1,14.7-4.11c1.9-.42,3.45-.73,4.53-.91A9.67,9.67,0,0,1,691.09,336.79Z" transform="translate(-23.82 -29.83)"/><path class="cls-9" d="M664.21,440.45c0,.15-7.92.27-17.69.27s-17.7-.12-17.7-.27,7.92-.27,17.7-.27S664.21,440.3,664.21,440.45Z" transform="translate(-23.82 -29.83)"/><path class="cls-9" d="M665.2,437.44c0,.15-8.39.27-18.75.27s-18.75-.12-18.75-.27,8.39-.27,18.75-.27S665.2,437.29,665.2,437.44Z" transform="translate(-23.82 -29.83)"/></g><g id="Floor"><path class="cls-7" d="M39.89,456.48c0,.15,152.44.27,340.44.27s340.47-.12,340.47-.27-152.41-.26-340.47-.26S39.89,456.34,39.89,456.48Z" transform="translate(-23.82 -29.83)"/></g><g id="Speech_Bubbles" data-name="Speech Bubbles"><polygon class="cls-9" points="109.48 46.29 377.47 46.29 377.47 212.26 151.87 212.26 137.9 244.39 125.52 212.26 109.48 212.26 109.48 46.29"/><path class="cls-7" d="M133.31,76.12c0,1.61-.08,64-.2,166v.2h16.23l-.19-.13c3.88,10.07,8.06,20.92,12.37,32.13l.19.51.22-.5c4.38-10.06,9.11-20.95,14-32.13l-.22.14,204,0h21.84v-.26c0-59.15,0-115.28,0-166v-.24h-.24l-268,.23,268,.24-.24-.23c0,50.68,0,106.81,0,166l.26-.26H379.71l-204,0h-.15l-.06.14c-4.86,11.18-9.58,22.07-14,32.14h.41c-4.32-11.2-8.51-22-12.39-32.12l0-.14H133.31l.2.2C133.38,140.08,133.31,77.73,133.31,76.12Z" transform="translate(-23.82 -29.83)"/><path class="cls-7" d="M133.45,92.32c0,.2,59.87.37,133.71.37s133.73-.17,133.73-.37S341,92,267.16,92,133.45,92.12,133.45,92.32Z" transform="translate(-23.82 -29.83)"/><path class="cls-7" d="M387.05,85a2.2,2.2,0,1,0,2.2-2.2A2.2,2.2,0,0,0,387.05,85Z" transform="translate(-23.82 -29.83)"/><path class="cls-7" d="M379.1,85a2.2,2.2,0,1,0,2.2-2.2A2.2,2.2,0,0,0,379.1,85Z" transform="translate(-23.82 -29.83)"/><path class="cls-7" d="M371.15,85a2.2,2.2,0,1,0,2.2-2.2A2.2,2.2,0,0,0,371.15,85Z" transform="translate(-23.82 -29.83)"/><path class="cls-7" d="M372.06,120.52l8,3.18v1.54l-8,3.17v-1.49l6.37-2.45L372.06,122Z" transform="translate(-23.82 -29.83)"/><path class="cls-7" d="M371.36,132.53H369.8l-5.92-16.88h1.56Z" transform="translate(-23.82 -29.83)"/><path class="cls-7" d="M363.34,120.52V122L357,124.47l6.38,2.45v1.49l-8-3.17V123.7Z" transform="translate(-23.82 -29.83)"/><path class="cls-7" d="M352.06,130.85a1.19,1.19,0,0,1-1.18-1.24,1.17,1.17,0,0,1,1.18-1.22,1.2,1.2,0,0,1,1.22,1.22A1.22,1.22,0,0,1,352.06,130.85Z" transform="translate(-23.82 -29.83)"/><path class="cls-7" d="M348,130.85a1.2,1.2,0,0,1-1.19-1.24,1.18,1.18,0,0,1,1.19-1.22,1.2,1.2,0,0,1,1.22,1.22A1.22,1.22,0,0,1,348,130.85Z" transform="translate(-23.82 -29.83)"/><path class="cls-7" d="M343.92,130.85a1.2,1.2,0,0,1-1.19-1.24,1.18,1.18,0,0,1,1.19-1.22,1.2,1.2,0,0,1,1.22,1.22A1.22,1.22,0,0,1,343.92,130.85Z" transform="translate(-23.82 -29.83)"/><path class="cls-6" d="M202.84,145.71c0,.2,39.61.36,88.47.36s88.48-.16,88.48-.36-39.61-.37-88.48-.37S202.84,145.5,202.84,145.71Z" transform="translate(-23.82 -29.83)"/><path class="cls-7" d="M173.94,146.23c0,.2,3.81.37,8.5.37s8.5-.17,8.5-.37-3.8-.37-8.5-.37S173.94,146,173.94,146.23Z" transform="translate(-23.82 -29.83)"/><path class="cls-7" d="M149.09,146.23c0,.2,4.16.37,9.29.37s9.28-.17,9.28-.37-4.15-.37-9.28-.37S149.09,146,149.09,146.23Z" transform="translate(-23.82 -29.83)"/><path class="cls-6" d="M267.11,160.62c0,.2,25.18.36,56.24.36s56.24-.16,56.24-.36-25.18-.37-56.24-.37S267.11,160.41,267.11,160.62Z" transform="translate(-23.82 -29.83)"/><path class="cls-6" d="M267.92,216.25c0,.2,25.18.36,56.23.36s56.24-.16,56.24-.36-25.17-.37-56.24-.37S267.92,216.05,267.92,216.25Z" transform="translate(-23.82 -29.83)"/><path class="cls-7" d="M226.25,160.62c0,.2,6.85.36,15.3.36s15.31-.16,15.31-.36-6.85-.37-15.31-.37S226.25,160.41,226.25,160.62Z" transform="translate(-23.82 -29.83)"/><path class="cls-7" d="M226.57,216.25c0,.2,6.85.36,15.3.36s15.31-.16,15.31-.36-6.85-.37-15.31-.37S226.57,216.05,226.57,216.25Z" transform="translate(-23.82 -29.83)"/><path class="cls-8" d="M372.21,168.2c0,.2,1.69.37,3.79.37s3.79-.17,3.79-.37-1.7-.36-3.79-.36S372.21,168,372.21,168.2Z" transform="translate(-23.82 -29.83)"/><path class="cls-7" d="M346.05,168.36c0,.2,3.69.36,8.24.36s8.24-.16,8.24-.36-3.69-.37-8.24-.37S346.05,168.16,346.05,168.36Z" transform="translate(-23.82 -29.83)"/><path class="cls-7" d="M329.31,168.36c0,.2,3.16.36,7.06.36s7.06-.16,7.06-.36-3.16-.37-7.06-.37S329.31,168.16,329.31,168.36Z" transform="translate(-23.82 -29.83)"/><path class="cls-7" d="M308.12,168.36c0,.2,3.22.36,7.2.36s7.19-.16,7.19-.36-3.22-.37-7.19-.37S308.12,168.16,308.12,168.36Z" transform="translate(-23.82 -29.83)"/><path class="cls-7" d="M289.55,168.36c0,.2,2.93.36,6.54.36s6.54-.16,6.54-.36-2.93-.37-6.54-.37S289.55,168.16,289.55,168.36Z" transform="translate(-23.82 -29.83)"/><path class="cls-7" d="M228.08,168.36c0,.2,12.89.36,28.77.36s28.78-.16,28.78-.36-12.88-.37-28.78-.37S228.08,168.16,228.08,168.36Z" transform="translate(-23.82 -29.83)"/><path class="cls-8" d="M373.25,177.88c0,.2,1.47.37,3.27.37s3.27-.17,3.27-.37-1.46-.37-3.27-.37S373.25,177.68,373.25,177.88Z" transform="translate(-23.82 -29.83)"/><path class="cls-8" d="M373,187.82c0,.2,1.52.37,3.4.37s3.4-.17,3.4-.37-1.52-.37-3.4-.37S373,187.62,373,187.82Z" transform="translate(-23.82 -29.83)"/><path class="cls-8" d="M373,199.07c0,.2,1.52.36,3.4.36s3.4-.16,3.4-.36-1.52-.37-3.4-.37S373,198.86,373,199.07Z" transform="translate(-23.82 -29.83)"/><path class="cls-7" d="M311,198.54c0,.21,11.36.37,25.37.37s25.37-.16,25.37-.37-11.35-.36-25.37-.36S311,198.34,311,198.54Z" transform="translate(-23.82 -29.83)"/><path class="cls-7" d="M315.45,187.82c0,.2,10.83.37,24.19.37s24.2-.17,24.2-.37-10.83-.37-24.2-.37S315.45,187.62,315.45,187.82Z" transform="translate(-23.82 -29.83)"/><path class="cls-7" d="M198.53,177.36c0,.2,36.89.36,82.39.36s82.39-.16,82.39-.36-36.88-.37-82.39-.37S198.53,177.15,198.53,177.36Z" transform="translate(-23.82 -29.83)"/><polygon class="cls-9" points="93.02 114.16 93.02 255.2 114.95 273.5 93.02 273.5 90.86 273.5 0.26 273.5 0.26 114.16 93.02 114.16"/><path class="cls-7" d="M116.84,144s-.54,0-1.62,0l-4.8,0L92,143.9l-67.88-.1h-.19v.2c0,42.57,0,98.17-.07,159.33v.26H40.17l98.6,0h.67l-.52-.43L117,284.86l.08.18c0-42.17-.09-77.45-.12-102.2,0-12.35,0-22.07-.06-28.71,0-3.3,0-5.84,0-7.56,0-.84,0-1.49,0-1.93s0-.64,0-.64,0,.23,0,.67,0,1.1,0,2c0,1.73,0,4.28,0,7.6,0,6.65,0,16.39-.06,28.75,0,24.72-.07,60-.12,102.06v.1l.08.07,21.92,18.31.16-.43-98.6,0H24.08l.26.26c0-61.16,0-116.76-.06-159.33l-.2.19,67.76-.1,18.51-.05,4.83,0Z" transform="translate(-23.82 -29.83)"/><path class="cls-7" d="M108.42,151a1.88,1.88,0,1,0,1.87-1.88A1.88,1.88,0,0,0,108.42,151Z" transform="translate(-23.82 -29.83)"/><path class="cls-7" d="M101.61,151a1.88,1.88,0,1,0,1.88-1.88A1.88,1.88,0,0,0,101.61,151Z" transform="translate(-23.82 -29.83)"/><path class="cls-7" d="M94.81,151a1.88,1.88,0,1,0,1.88-1.88A1.88,1.88,0,0,0,94.81,151Z" transform="translate(-23.82 -29.83)"/><path class="cls-8" d="M49.58,194.47c0,.17,11.76.3,26.26.3s26.27-.13,26.27-.3-11.76-.3-26.27-.3S49.58,194.3,49.58,194.47Z" transform="translate(-23.82 -29.83)"/><path class="cls-8" d="M38.63,207.23c0,.16,14.31.3,32,.3s32-.14,32-.3-14.31-.3-32-.3S38.63,207.06,38.63,207.23Z" transform="translate(-23.82 -29.83)"/><path class="cls-8" d="M36,254.83c0,.17,15.26.3,34.08.3s34.08-.13,34.08-.3-15.25-.3-34.08-.3S36,254.67,36,254.83Z" transform="translate(-23.82 -29.83)"/><path class="cls-8" d="M97.18,213.72a9.16,9.16,0,0,0,3.24.3,9.19,9.19,0,0,0,3.25-.3,8.93,8.93,0,0,0-3.25-.3A8.89,8.89,0,0,0,97.18,213.72Z" transform="translate(-23.82 -29.83)"/><path class="cls-8" d="M74.8,213.85c0,.17,3.15.3,7,.3s7.05-.13,7.05-.3a42.44,42.44,0,0,0-7.05-.3A42.34,42.34,0,0,0,74.8,213.85Z" transform="translate(-23.82 -29.83)"/><path class="cls-8" d="M60.47,213.85c0,.17,2.71.3,6,.3s6-.13,6-.3a31.31,31.31,0,0,0-6-.3A31.24,31.24,0,0,0,60.47,213.85Z" transform="translate(-23.82 -29.83)"/><path class="cls-8" d="M98.07,222a6.73,6.73,0,0,0,2.8.3,6.7,6.7,0,0,0,2.8-.3,6.7,6.7,0,0,0-2.8-.3A6.73,6.73,0,0,0,98.07,222Z" transform="translate(-23.82 -29.83)"/><path class="cls-8" d="M97.85,230.51a7.43,7.43,0,0,0,2.91.3,7.43,7.43,0,0,0,2.91-.3,7.11,7.11,0,0,0-2.91-.31A7.11,7.11,0,0,0,97.85,230.51Z" transform="translate(-23.82 -29.83)"/><path class="cls-8" d="M97.85,240.13a7.22,7.22,0,0,0,2.91.3,7.22,7.22,0,0,0,2.91-.3,7.22,7.22,0,0,0-2.91-.3A7.22,7.22,0,0,0,97.85,240.13Z" transform="translate(-23.82 -29.83)"/><path class="cls-8" d="M44.8,239.68c0,.17,9.73.3,21.71.3s21.72-.13,21.72-.3-9.72-.3-21.72-.3S44.8,239.52,44.8,239.68Z" transform="translate(-23.82 -29.83)"/><path class="cls-8" d="M48.61,230.51c0,.16,9.27.3,20.7.3s20.71-.14,20.71-.3-9.27-.31-20.71-.31S48.61,230.34,48.61,230.51Z" transform="translate(-23.82 -29.83)"/><path class="cls-8" d="M93.61,267.54a7.22,7.22,0,0,0,2.91.3,7.22,7.22,0,0,0,2.91-.3,7.22,7.22,0,0,0-2.91-.3A7.22,7.22,0,0,0,93.61,267.54Z" transform="translate(-23.82 -29.83)"/><path class="cls-8" d="M93.61,277.17a7.43,7.43,0,0,0,2.91.3,7.43,7.43,0,0,0,2.91-.3,7.11,7.11,0,0,0-2.91-.31A7.11,7.11,0,0,0,93.61,277.17Z" transform="translate(-23.82 -29.83)"/><path class="cls-8" d="M40.57,276.72c0,.16,9.72.3,21.71.3s21.71-.14,21.71-.3-9.72-.3-21.71-.3S40.57,276.55,40.57,276.72Z" transform="translate(-23.82 -29.83)"/><path class="cls-8" d="M44.37,267.54c0,.17,9.27.3,20.7.3s20.71-.13,20.71-.3-9.27-.3-20.71-.3S44.37,267.37,44.37,267.54Z" transform="translate(-23.82 -29.83)"/><path class="cls-8" d="M33.21,221.55c0,.17,12.62.3,28.18.3s28.18-.13,28.18-.3-12.62-.3-28.18-.3S33.21,221.39,33.21,221.55Z" transform="translate(-23.82 -29.83)"/><path class="cls-7" d="M25,158.38c0,.16,20.37.3,45.49.3s45.49-.14,45.49-.3-20.36-.3-45.49-.3S25,158.21,25,158.38Z" transform="translate(-23.82 -29.83)"/><path class="cls-8" d="M82.92,186.78a78.43,78.43,0,0,0,9.6.3,78.53,78.53,0,0,0,9.61-.3c0-.17-4.3-.3-9.61-.3S82.92,186.61,82.92,186.78Z" transform="translate(-23.82 -29.83)"/><path class="cls-8" d="M93.79,169.37c0,.17,2,.3,4.53.3s4.54-.13,4.54-.3a17.72,17.72,0,0,0-4.54-.3A17.67,17.67,0,0,0,93.79,169.37Z" transform="translate(-23.82 -29.83)"/></g><g id="Character"><path class="cls-8" d="M174.07,374.76l-20.14-19.91,35.92-61.51a34.66,34.66,0,0,1,13.78-9.59l12.65-4.81,31.45-5.77,22.33,8.8a13.34,13.34,0,0,1,8.36,14l-5.84,49.16-3.44,64L188,395.06l8.16-23.67-.27-36.92Z" transform="translate(-23.82 -29.83)"/><path class="cls-7" d="M195.43,369.82c-.19,0-.24-12.79-.11-28.56s.39-28.56.58-28.56.24,12.79.11,28.56S195.62,369.82,195.43,369.82Z" transform="translate(-23.82 -29.83)"/><path class="cls-8" d="M198.4,379.2l49-19.73a11.22,11.22,0,0,0,7-9.54l3.59-47s-.43-20,12.06-21l7.1,2.79c9.18,4.88,11.45,18.24,10.2,28.56-1.77,14.66-2.51,35.41-4.5,48.14-1.62,10.41-7.88,18.64-17.77,22.25l-60.38,13.07Z" transform="translate(-23.82 -29.83)"/><path class="cls-7" d="M257.29,310.1a7.53,7.53,0,0,0-.15,1.07c-.08.77-.18,1.8-.32,3.1-.25,2.75-.6,6.63-1,11.4s-.91,10.56-1.46,16.91c-.13,1.59-.27,3.22-.41,4.89a36,36,0,0,1-.62,5,8.37,8.37,0,0,1-2.44,4.4,16.4,16.4,0,0,1-4.52,2.81c-13.52,5.85-26,10.68-35,14.07l-10.74,4-2.92,1.08a6.31,6.31,0,0,0-1,.42,7,7,0,0,0,1.05-.29l3-1c2.56-.85,6.26-2.13,10.81-3.76,9.09-3.29,21.57-8,35.13-13.91a17,17,0,0,0,4.7-2.94,8.92,8.92,0,0,0,2.61-4.73,37.25,37.25,0,0,0,.63-5.12q.19-2.5.39-4.89c.49-6.36.93-12.09,1.31-16.93s.63-8.65.83-11.41c.08-1.3.14-2.34.19-3.11A5.19,5.19,0,0,0,257.29,310.1Z" transform="translate(-23.82 -29.83)"/><path class="cls-7" d="M285.38,335.65a2.85,2.85,0,0,0-.1.63c0,.49-.1,1.09-.16,1.81-.15,1.68-.34,3.93-.58,6.67s-.61,6.16-1.1,9.86a94.14,94.14,0,0,1-2.21,11.91,17.58,17.58,0,0,1-2.4,5.67,32.43,32.43,0,0,1-3.66,4.5,31.43,31.43,0,0,1-7.84,5.89,29.66,29.66,0,0,1-8.61,2.82,2.82,2.82,0,0,0,.64,0,13.16,13.16,0,0,0,1.81-.23,24.1,24.1,0,0,0,6.37-2.16,30.88,30.88,0,0,0,8.06-5.87,32.53,32.53,0,0,0,3.77-4.57,18.14,18.14,0,0,0,2.49-5.86,88.25,88.25,0,0,0,2.18-12c.46-3.72.75-7.08,1-9.9s.32-5.11.37-6.69c0-.73,0-1.33,0-1.83A2.58,2.58,0,0,0,285.38,335.65Z" transform="translate(-23.82 -29.83)"/><path class="cls-7" d="M264.42,368.54a7.29,7.29,0,0,0-.9-2.62,16.81,16.81,0,0,0-9.94-8.49,7.13,7.13,0,0,0-2.72-.47c0,.11,1,.31,2.57.91a19.11,19.11,0,0,1,9.69,8.27C264,367.59,264.31,368.57,264.42,368.54Z" transform="translate(-23.82 -29.83)"/><g class="cls-3"><path d="M212.49,373.6c5.24-3,10.37-5.24,15.85-7.73s10.85-5.69,14.44-10.52c6.76-9.12,6-22.28,12.92-31.28q-.69,9.07-1.36,18.15c-.42,5.55.43,11-3.14,14.8-3,3.17-8.87,5.61-13,7-8.34,2.75-17.33,6.84-25.68,9.6" transform="translate(-23.82 -29.83)"/></g><polygon class="cls-10" points="172.07 286.33 167.83 312.48 171.84 305.07 172.07 286.33"/><path class="cls-6" d="M258.77,300a4.38,4.38,0,0,0,1.14.09l3.09.08c2.61.07,6.21.2,10.18.48s7.56.67,10.15,1l3.07.36a5.69,5.69,0,0,0,1.14.08,4.31,4.31,0,0,0-1.11-.28c-.72-.15-1.76-.33-3.05-.53-2.59-.4-6.18-.84-10.16-1.13s-7.6-.36-10.22-.33c-1.31,0-2.36.05-3.1.09A5.46,5.46,0,0,0,258.77,300Z" transform="translate(-23.82 -29.83)"/><path class="cls-6" d="M257.38,325.06c0,.14,6.41.79,14.35,1.44s14.38,1.08,14.39.93-6.41-.79-14.35-1.45S257.39,324.91,257.38,325.06Z" transform="translate(-23.82 -29.83)"/><path class="cls-6" d="M255,351.37a5.35,5.35,0,0,0,1,.58c.67.35,1.66.81,2.9,1.33a60.22,60.22,0,0,0,10,3.19,59.29,59.29,0,0,0,10.43,1.39c1.35.06,2.44.06,3.19,0a4.6,4.6,0,0,0,1.17-.09,5.92,5.92,0,0,0-1.17-.11c-.75,0-1.83-.09-3.17-.2A73.44,73.44,0,0,1,269.07,356a72.42,72.42,0,0,1-10-3c-1.26-.48-2.26-.88-2.95-1.17A5.11,5.11,0,0,0,255,351.37Z" transform="translate(-23.82 -29.83)"/><path class="cls-6" d="M237.58,364.87a25.72,25.72,0,0,1,4.86,3.9,26.59,26.59,0,0,1,3.39,5.23,4.76,4.76,0,0,0-.54-1.79,14.27,14.27,0,0,0-6-6.62A4.56,4.56,0,0,0,237.58,364.87Z" transform="translate(-23.82 -29.83)"/><path class="cls-6" d="M219.85,382.19a14.53,14.53,0,0,0-1.92-5.16,14.69,14.69,0,0,0-3.31-4.4c-.12.1,1.42,2,2.85,4.65S219.71,382.24,219.85,382.19Z" transform="translate(-23.82 -29.83)"/><path class="cls-6" d="M247.79,285.3a49.38,49.38,0,0,0,6.94,1.52,48.67,48.67,0,0,0,7,1,47.4,47.4,0,0,0-6.93-1.52A48.51,48.51,0,0,0,247.79,285.3Z" transform="translate(-23.82 -29.83)"/><path class="cls-6" d="M200.87,287.44a90.22,90.22,0,0,0,9.61-.88,87.25,87.25,0,0,0,9.55-1.4,93.25,93.25,0,0,0-9.61.88A90.26,90.26,0,0,0,200.87,287.44Z" transform="translate(-23.82 -29.83)"/><path class="cls-6" d="M196.86,309.26a2.07,2.07,0,0,0,.61,0l1.76,0h6.47c5.46,0,13,0,21.33.25s15.87.56,21.32.85l6.46.34,1.76.07a2,2,0,0,0,.61,0,3.38,3.38,0,0,0-.61-.09l-1.75-.18c-1.52-.14-3.72-.31-6.45-.5-5.45-.38-13-.78-21.33-1s-15.88-.2-21.34-.1c-2.73.05-4.94.11-6.47.18l-1.76.08A3.27,3.27,0,0,0,196.86,309.26Z" transform="translate(-23.82 -29.83)"/><path class="cls-6" d="M196.28,336.91c0,.14,12.86,1.1,28.73,2.15s28.75,1.77,28.76,1.63-12.85-1.11-28.73-2.15S196.29,336.76,196.28,336.91Z" transform="translate(-23.82 -29.83)"/><path class="cls-6" d="M197.65,361.26a6.19,6.19,0,0,0,1.08.46c.71.26,1.74.62,3,1,2.57.84,6.15,1.89,10.16,2.86s7.69,1.66,10.36,2.07c1.33.22,2.41.37,3.16.45a6.1,6.1,0,0,0,1.18.08,5.12,5.12,0,0,0-1.14-.28l-3.14-.61c-2.65-.51-6.3-1.26-10.3-2.22s-7.58-1.95-10.17-2.7l-3.07-.89A4.75,4.75,0,0,0,197.65,361.26Z" transform="translate(-23.82 -29.83)"/><path class="cls-6" d="M177.08,317.12a91.28,91.28,0,0,0,9.34,2.68,91.06,91.06,0,0,0,9.47,2.18,90.35,90.35,0,0,0-9.34-2.68A88.06,88.06,0,0,0,177.08,317.12Z" transform="translate(-23.82 -29.83)"/><path class="cls-6" d="M186.89,298.43a17.28,17.28,0,0,0,4.14,1,17.51,17.51,0,0,0,4.23.5,17.45,17.45,0,0,0-4.14-1A17.51,17.51,0,0,0,186.89,298.43Z" transform="translate(-23.82 -29.83)"/><path class="cls-7" d="M257.15,304.23c.1,0,.25-1.66,1.17-4.17a21,21,0,0,1,14.86-13.36c2.59-.64,4.28-.61,4.27-.71a4.32,4.32,0,0,0-1.17-.05,18.29,18.29,0,0,0-3.19.41A20.34,20.34,0,0,0,258,299.94a18,18,0,0,0-.74,3.12A4.49,4.49,0,0,0,257.15,304.23Z" transform="translate(-23.82 -29.83)"/><path class="cls-7" d="M198.74,290.9A83,83,0,0,0,197,300a83.64,83.64,0,0,0-1.21,9.23,85.84,85.84,0,0,0,1.73-9.15A84,84,0,0,0,198.74,290.9Z" transform="translate(-23.82 -29.83)"/><path class="cls-8" d="M144.1,438.29s-37.68,10.42-39.19,11c-2.27.8-1.89,9.11,1.65,9,1.67-.06,28.94,1,32.38.8s13.84-4.31,13.84-4.31Z" transform="translate(-23.82 -29.83)"/><path class="cls-7" d="M128.41,452.66c-.19,0-.45-2-1.66-4s-2.79-3.32-2.67-3.47,1.94.92,3.21,3.15A6.79,6.79,0,0,1,128.41,452.66Z" transform="translate(-23.82 -29.83)"/><path class="cls-7" d="M132.33,450.88c-.18,0-.56-1.75-1.57-3.72s-2.18-3.34-2-3.47,1.58,1.11,2.62,3.19S132.5,450.87,132.33,450.88Z" transform="translate(-23.82 -29.83)"/><path class="cls-7" d="M136,449.9c-.19,0-.05-1.9-.88-4s-2.19-3.38-2-3.52,1.76,1,2.64,3.3S136.17,450,136,449.9Z" transform="translate(-23.82 -29.83)"/><path class="cls-7" d="M135.35,445a6.63,6.63,0,0,1-.4-2.81,13.24,13.24,0,0,1,.94-4.82,2.09,2.09,0,0,1,.6-.92,1,1,0,0,1,1.3.06,1.71,1.71,0,0,1,.5,1.07,6.77,6.77,0,0,1,.05,1,8.35,8.35,0,0,1-.24,1.85,11.07,11.07,0,0,1-1.15,2.88,7.48,7.48,0,0,1-1.7,2.27c-.08-.06.55-.94,1.3-2.48a12.31,12.31,0,0,0,1-2.8,8.64,8.64,0,0,0,.18-1.72c0-.58,0-1.3-.35-1.58a.36.36,0,0,0-.5,0,1.59,1.59,0,0,0-.41.66,14.61,14.61,0,0,0-1.07,4.6C135.28,444,135.45,445,135.35,445Z" transform="translate(-23.82 -29.83)"/><path class="cls-7" d="M135.4,444.65a5.15,5.15,0,0,1,2.43-.4,11,11,0,0,1,2.67.33,5.82,5.82,0,0,1,1.54.57,1.58,1.58,0,0,1,.85,1.72,1.86,1.86,0,0,1-1.36,1.34,3.45,3.45,0,0,1-1.69,0,6.62,6.62,0,0,1-2.44-1.2,6.87,6.87,0,0,1-1.76-1.73,16.4,16.4,0,0,1,2,1.36,6.62,6.62,0,0,0,2.31,1,2.88,2.88,0,0,0,1.4,0,1.29,1.29,0,0,0,.92-.89,1,1,0,0,0-.56-1.06,5.81,5.81,0,0,0-1.37-.53,12.67,12.67,0,0,0-2.54-.44C136.34,444.6,135.41,444.75,135.4,444.65Z" transform="translate(-23.82 -29.83)"/><path class="cls-7" d="M122.62,453.07c-.19,0,0-1.63-.75-3.4s-2-2.81-1.84-2.95,1.64.74,2.43,2.71S122.77,453.13,122.62,453.07Z" transform="translate(-23.82 -29.83)"/><path class="cls-7" d="M148.91,454.81a8,8,0,0,1-1.46.68,31.31,31.31,0,0,1-4.19,1.3,59.77,59.77,0,0,1-14.39,1.36c-5.64-.06-10.73-.31-14.42-.46l-4.37-.23a8.44,8.44,0,0,1-1.6-.17,7.37,7.37,0,0,1,1.61-.08l4.37,0,14.41.28a67.89,67.89,0,0,0,14.29-1.16C146.76,455.62,148.86,454.69,148.91,454.81Z" transform="translate(-23.82 -29.83)"/><path class="cls-7" d="M150,455.67c-.05.08-1.08-.52-2.82-1.28a13.08,13.08,0,0,0-7.13-1.19,11.28,11.28,0,0,0-6.16,3.67,20.91,20.91,0,0,1-2.18,2.21,12.59,12.59,0,0,1,1.85-2.52,14.72,14.72,0,0,1,2.5-2.33,8.86,8.86,0,0,1,3.89-1.65,12.47,12.47,0,0,1,7.42,1.4A9.66,9.66,0,0,1,150,455.67Z" transform="translate(-23.82 -29.83)"/><path class="cls-8" d="M188.7,429.54s35.65,23.34,36.93,24.31c1.92,1.45-.28,8.36-3.61,7.16-1.57-.56-31.49-8.89-34.71-10.14s-11.88-8.31-11.88-8.31Z" transform="translate(-23.82 -29.83)"/><path class="cls-7" d="M199.29,448c-.16,0,.47-2.09,2.38-3.81s4-2.19,4-2-1.83.86-3.59,2.49S199.46,448.09,199.29,448Z" transform="translate(-23.82 -29.83)"/><path class="cls-7" d="M196.08,445.11c-.15-.05.54-1.85,2.18-3.5s3.4-2.4,3.46-2.25-1.47,1.1-3,2.69S196.25,445.2,196.08,445.11Z" transform="translate(-23.82 -29.83)"/><path class="cls-7" d="M192.87,443.05c-.16,0,0-2,1.56-3.92s3.49-2.49,3.52-2.33-1.63,1-3,2.73S193.06,443.1,192.87,443.05Z" transform="translate(-23.82 -29.83)"/><path class="cls-7" d="M195,438.62c-.1,0,.39-1,.8-2.67a14.13,14.13,0,0,0,.42-2.95,11.64,11.64,0,0,0,0-1.76,1.59,1.59,0,0,0-.19-.75.36.36,0,0,0-.49-.11c-.4.16-.62.85-.81,1.4a8.77,8.77,0,0,0-.35,1.69,12.35,12.35,0,0,0,.09,3c.25,1.69.59,2.72.49,2.75a7.46,7.46,0,0,1-.93-2.67,11.38,11.38,0,0,1-.23-3.1,8.76,8.76,0,0,1,.34-1.83,7.61,7.61,0,0,1,.35-.93,1.66,1.66,0,0,1,.8-.86,1,1,0,0,1,1.26.33,2.15,2.15,0,0,1,.29,1.06,12.55,12.55,0,0,1,0,1.84,12.86,12.86,0,0,1-.57,3A6.63,6.63,0,0,1,195,438.62Z" transform="translate(-23.82 -29.83)"/><path class="cls-7" d="M195.06,438.24c-.05.09-.88-.33-2.32-.68a12.76,12.76,0,0,0-2.55-.35,6,6,0,0,0-1.47.09,1,1,0,0,0-.85.83,1.3,1.3,0,0,0,.6,1.14,3.13,3.13,0,0,0,1.33.44,6.58,6.58,0,0,0,2.5-.25,17.91,17.91,0,0,1,2.33-.69,6.27,6.27,0,0,1-2.19,1.11,6.45,6.45,0,0,1-2.7.41,3.49,3.49,0,0,1-1.61-.51,1.9,1.9,0,0,1-.89-1.7,1.6,1.6,0,0,1,1.34-1.38,6.15,6.15,0,0,1,1.64-.07,11,11,0,0,1,2.64.5A5.36,5.36,0,0,1,195.06,438.24Z" transform="translate(-23.82 -29.83)"/><path class="cls-7" d="M217.48,459.71c0,.06-.6-.36-.87-1.38a5.29,5.29,0,0,1,.66-3.87,14.48,14.48,0,0,1,1.2-1.78,6.38,6.38,0,0,1,1.21-1.3,2.19,2.19,0,0,1,1.14-.48c.3,0,.45.06.44.1a3.4,3.4,0,0,0-1.29.72,8,8,0,0,0-1,1.3,20.1,20.1,0,0,0-1.11,1.74,5.51,5.51,0,0,0-.79,3.48A14.06,14.06,0,0,0,217.48,459.71Z" transform="translate(-23.82 -29.83)"/><path class="cls-7" d="M204.68,450.15c-.17,0-.12-1.8,1.25-3.42s3.13-2,3.14-1.84-1.44.76-2.65,2.24S204.86,450.18,204.68,450.15Z" transform="translate(-23.82 -29.83)"/><path class="cls-7" d="M179.1,443.82a11.36,11.36,0,0,1,1.57,1.08,45.45,45.45,0,0,0,4.39,2.69,58,58,0,0,0,7,3.11c2.7,1,5.72,1.95,8.93,2.88,6.41,1.85,12.22,3.54,16.41,4.8l5,1.52a11.12,11.12,0,0,1,1.8.64,11.4,11.4,0,0,1-1.86-.41l-5-1.32c-4.23-1.15-10.05-2.77-16.47-4.62-3.21-.93-6.25-1.9-9-2.95a52.78,52.78,0,0,1-7-3.26,35.86,35.86,0,0,1-4.33-2.89A9.84,9.84,0,0,1,179.1,443.82Z" transform="translate(-23.82 -29.83)"/><path class="cls-7" d="M177.78,444.3a9.71,9.71,0,0,1,3-.8,12.46,12.46,0,0,1,7.49.91,8.92,8.92,0,0,1,3.21,2.76,14.09,14.09,0,0,1,1.67,3,11.68,11.68,0,0,1,1,3,22.07,22.07,0,0,1-1.39-2.77c-.85-1.66-2.19-4.09-4.76-5.37a13.17,13.17,0,0,0-7.15-1C179,444.14,177.8,444.4,177.78,444.3Z" transform="translate(-23.82 -29.83)"/><path class="cls-7" d="M114.58,371.16S103.88,375,103.84,387c-.09,23,46.41,48.3,46.41,48.3l61.89-41,3.88-1.57S132.48,361.31,114.58,371.16Z" transform="translate(-23.82 -29.83)"/><path class="cls-6" d="M180.79,415a10.63,10.63,0,0,1-1.61-1.09c-1-.73-2.46-1.83-4.23-3.2-3.55-2.73-8.37-6.62-13.55-11.07s-9.76-8.63-13-11.72c-1.62-1.54-2.92-2.81-3.8-3.7a11.39,11.39,0,0,1-1.32-1.43,12.11,12.11,0,0,1,1.49,1.25l3.93,3.55c3.32,3,7.93,7.13,13.11,11.57s9.95,8.38,13.41,11.21l4.11,3.35A11,11,0,0,1,180.79,415Z" transform="translate(-23.82 -29.83)"/><path class="cls-6" d="M132.05,379.74c0-.15,2.73-.42,6,.55s5.41,2.66,5.3,2.78-2.36-1.27-5.48-2.18S132,379.94,132.05,379.74Z" transform="translate(-23.82 -29.83)"/><path class="cls-6" d="M137.38,376.12c.05-.15,2,.73,3.67,2.76s2.08,4.15,1.92,4.17-.85-1.86-2.41-3.77S137.28,376.29,137.38,376.12Z" transform="translate(-23.82 -29.83)"/><path class="cls-7" d="M111.17,448.87c0-.08.74-.22,1.6.48a5.79,5.79,0,0,1,1.79,3.59,7,7,0,0,1-.57,4c-.43.94-.92,1.39-1,1.34s.25-.58.56-1.5a8,8,0,0,0,.35-3.71,6.21,6.21,0,0,0-1.46-3.35C111.81,449,111.16,449,111.17,448.87Z" transform="translate(-23.82 -29.83)"/><path class="cls-2" d="M119,338.53,136.61,386a6.82,6.82,0,0,0,6.49,4.46L240,389.13v-7.36l-36,1.31-15.27-47.34a3.88,3.88,0,0,0-3.69-2.68l-62.52.18A3.87,3.87,0,0,0,119,338.53Z" transform="translate(-23.82 -29.83)"/><path class="cls-7" d="M119,338.53a1.1,1.1,0,0,0,0-.15,4.05,4.05,0,0,1-.12-.44,3.75,3.75,0,0,1,0-1.79,3.8,3.8,0,0,1,3.46-2.84c.67,0,1.39,0,2.15,0l26.08,0,18.28,0,10.26,0h5.4a4.28,4.28,0,0,1,2.58.57,3.77,3.77,0,0,1,1.6,2.11l15.22,47.26,0,.11h.11l36-1.3-.16-.16v7.36L240,389l-61,.81-26.49.37-6.11.08-3,0a7,7,0,0,1-2.82-.41,6.7,6.7,0,0,1-3.89-3.74c-.64-1.72-1.27-3.41-1.89-5.05-4.91-13.17-8.88-23.81-11.62-31.17l-3.17-8.45c-.72-1.93-1.12-2.93-1.12-2.93s.36,1,1.07,3,1.76,4.8,3.11,8.47l11.53,31.2,1.88,5.07a6.94,6.94,0,0,0,4,3.87,7.31,7.31,0,0,0,2.9.44l3,0,6.1-.08,26.5-.33,60.94-.79h.16v-7.68H240l-36,1.32.15.11c-5.49-17-10.64-32.94-15.26-47.25a4,4,0,0,0-1.72-2.25,4.49,4.49,0,0,0-2.71-.6l-5.4,0-10.26,0-18.28.08-26.08.12c-.76,0-1.48,0-2.16,0a4,4,0,0,0-1.79.58,3.9,3.9,0,0,0-1.71,2.35,3.74,3.74,0,0,0,0,1.8A3.52,3.52,0,0,0,119,338.53Z" transform="translate(-23.82 -29.83)"/><path class="cls-1" d="M162,356.46a4.36,4.36,0,0,0-4.71.5,3.81,3.81,0,0,0-.93,4.18,4.15,4.15,0,0,0,3.54,2.47,3.71,3.71,0,0,0,3.74-2.47c.45-1.55-.05-3.86-1.64-4.68" transform="translate(-23.82 -29.83)"/><path class="cls-7" d="M139.82,437.85s87.34-55.94,91.2-58.14c3.28-1.87,12-7.27,20.7-4.88S268.13,385,272,396.31c2.22,6.48,3.26,17.53,3.76,25.82a38.35,38.35,0,0,1-9,27.31,24.48,24.48,0,0,1-10.9,7.74c-.91.28-1.86.52-2.83.73-16.53,3.59-33.52-3.83-42.8-18l-2-3.11s-57.2,21-58.1,20.72Z" transform="translate(-23.82 -29.83)"/><path class="cls-6" d="M226.51,382.81l.22-.13.61-.42c.53-.37,1.32-.91,2.36-1.58A46.43,46.43,0,0,1,239,376a24.74,24.74,0,0,1,7-1.47,20,20,0,0,1,8,1.31,25.77,25.77,0,0,1,7.73,4.68,35,35,0,0,1,3.42,3.37,24.71,24.71,0,0,1,2.84,4,41.58,41.58,0,0,1,3.77,9c.82,3.05,1.48,6.06,2.11,8.9a81.73,81.73,0,0,1,2,15.32,55.46,55.46,0,0,1-.8,10.39c-.19,1.22-.4,2.15-.54,2.79l-.14.73a.79.79,0,0,0,0,.25.75.75,0,0,0,.08-.24l.2-.72c.16-.63.41-1.55.63-2.77a51.81,51.81,0,0,0,1-10.43,80.08,80.08,0,0,0-1.91-15.42c-.62-2.86-1.26-5.85-2.09-8.94a41.65,41.65,0,0,0-3.81-9.12,24.92,24.92,0,0,0-2.9-4.11,36.15,36.15,0,0,0-3.48-3.42,26.25,26.25,0,0,0-7.89-4.74,20.38,20.38,0,0,0-8.22-1.3,25.38,25.38,0,0,0-7.09,1.56,43.5,43.5,0,0,0-9.26,4.89c-1,.7-1.8,1.27-2.31,1.67l-.59.46C226.57,382.74,226.5,382.8,226.51,382.81Z" transform="translate(-23.82 -29.83)"/><path class="cls-6" d="M248,422.06l-.47.22-1.44.56L240.54,425l-20.6,7.76c-8.75,3.26-19.23,7.15-31,11.43s-24.8,9-38.72,13.68l-.25.08-.13-.23c-2.18-4.18-4.49-8.58-6.83-13.05-1.19-2.28-2.37-4.54-3.48-6.65l-.13-.26.24-.15,66.7-42.34,20-12.64,5.44-3.4,1.42-.87a5.4,5.4,0,0,1,.5-.27s-.15.12-.46.33l-1.39.92-5.38,3.49-19.93,12.8L140,438.12l.11-.41,3.48,6.65,6.83,13.05-.38-.16c13.91-4.7,26.95-9.37,38.73-13.61l31-11.29,20.67-7.58,5.58-2,1.45-.51Z" transform="translate(-23.82 -29.83)"/><path class="cls-8" d="M243.47,236.47a44.87,44.87,0,0,0,3.88-9.29,15.13,15.13,0,0,0-.51-9.88c-.82-1.79-2.09-3.36-2.73-5.22-.88-2.56-.52-5.58-2.11-7.77-2.47-3.43-7.77-2.63-11.6-4.42-3-1.4-5.06-4.41-8.2-5.42-2.74-.88-5.72,0-8.37,1.1s-5.22,2.57-8.08,2.94a54.67,54.67,0,0,1-6.14,0,8.07,8.07,0,0,0-5.67,2c-1.45,1.45-1.75,4.14-.19,5.47-3.58-.61-7,3-6.92,6.61s2.79,6.84,6.1,8.36,7.09,1.61,10.71,1.32c10.27-.8,20.59-4.7,27.58-12.26" transform="translate(-23.82 -29.83)"/><path class="cls-11" d="M241.26,223.62l7,50.85a15.27,15.27,0,0,1-13.8,17.29h0A15.28,15.28,0,0,1,218,278.61c-.52-3.83-1-7-1-7.41,0,0-13.12.56-15.81-12.12-1.31-6.13-3-19-4.33-30.61A24.16,24.16,0,0,1,216.09,202l1.22-.24C230.7,199.87,239.76,210.19,241.26,223.62Z" transform="translate(-23.82 -29.83)"/><path class="cls-12" d="M216.9,271a30.21,30.21,0,0,0,15.63-8s-2.09,9.94-15,11.33Z" transform="translate(-23.82 -29.83)"/><path class="cls-7" d="M202.52,239.28a1.86,1.86,0,0,0,2.12,1.48,1.77,1.77,0,0,0,1.54-2,1.85,1.85,0,0,0-2.11-1.49A1.78,1.78,0,0,0,202.52,239.28Z" transform="translate(-23.82 -29.83)"/><path class="cls-7" d="M200.8,234.16c.27.19,1.44-1.1,3.4-1.48s3.58.3,3.74,0c.09-.13-.23-.51-.94-.84a5.08,5.08,0,0,0-3.06-.31,4.86,4.86,0,0,0-2.65,1.48C200.78,233.61,200.67,234.08,200.8,234.16Z" transform="translate(-23.82 -29.83)"/><path class="cls-7" d="M220.75,236.13a1.83,1.83,0,0,0,2.11,1.48,1.77,1.77,0,0,0,1.55-2,1.86,1.86,0,0,0-2.12-1.48A1.76,1.76,0,0,0,220.75,236.13Z" transform="translate(-23.82 -29.83)"/><path class="cls-7" d="M220.08,230.69c.27.19,1.44-1.1,3.4-1.49s3.58.31,3.74,0c.09-.13-.23-.51-.94-.84a5.08,5.08,0,0,0-3.06-.31,4.92,4.92,0,0,0-2.65,1.47C220.07,230.14,220,230.6,220.08,230.69Z" transform="translate(-23.82 -29.83)"/><path class="cls-7" d="M215.88,246.6a12.82,12.82,0,0,0-3.29.06c-.51.05-1,0-1.15-.28a2.57,2.57,0,0,1,0-1.55c.23-1.3.46-2.66.71-4.09,1-5.82,1.57-10.57,1.33-10.6s-1.21,4.65-2.18,10.47c-.22,1.43-.44,2.79-.65,4.1a3,3,0,0,0,.14,2,1.3,1.3,0,0,0,1,.57,3.33,3.33,0,0,0,.87-.06A12.71,12.71,0,0,0,215.88,246.6Z" transform="translate(-23.82 -29.83)"/><path class="cls-7" d="M221.9,246.8c-.32,0,.1,2.17-1.41,4s-3.82,2.09-3.78,2.39c0,.14.59.31,1.55.15a5.4,5.4,0,0,0,3.17-1.88,4.7,4.7,0,0,0,1-3.35C222.39,247.24,222,246.76,221.9,246.8Z" transform="translate(-23.82 -29.83)"/><path class="cls-8" d="M218,223.13c.3.49,2.2-.15,4.55-.33s4.33.07,4.54-.46c.09-.26-.34-.69-1.19-1.06a8,8,0,0,0-6.92.61C218.25,222.39,217.91,222.9,218,223.13Z" transform="translate(-23.82 -29.83)"/><path class="cls-8" d="M200.39,228.36c.43.38,1.68-.35,3.3-.7s3.05-.3,3.27-.82c.09-.26-.21-.66-.9-1a4.88,4.88,0,0,0-5.29,1.23C200.29,227.68,200.19,228.18,200.39,228.36Z" transform="translate(-23.82 -29.83)"/><path class="cls-11" d="M242.1,233.24c.2-.14,8.22-4.33,9.68,4.42s-7.62,8.41-7.68,8.16S242.1,233.24,242.1,233.24Z" transform="translate(-23.82 -29.83)"/><path class="cls-12" d="M246.22,242.06s.17.08.45.15a1.53,1.53,0,0,0,1.14-.16c.87-.5,1.4-2.09,1.18-3.68a5,5,0,0,0-.79-2.11,1.8,1.8,0,0,0-1.34-1,.8.8,0,0,0-.83.57c-.08.27,0,.43,0,.45s-.21-.11-.2-.48a1,1,0,0,1,.25-.61,1.18,1.18,0,0,1,.81-.36,2.17,2.17,0,0,1,1.82,1.09,5.2,5.2,0,0,1,.93,2.35c.24,1.77-.39,3.57-1.59,4.15a1.67,1.67,0,0,1-1.43,0C246.27,242.27,246.19,242.08,246.22,242.06Z" transform="translate(-23.82 -29.83)"/><path class="cls-8" d="M194.3,216.66c1.5,3.23,9.22,4.48,14.88,2.77,5.22-1.57,7.11-4.88,10.43-7.77,2.1-1.83,2.1-1.83,5.52-2.18,2.77-.29,5,2.47,7.09,4.3-1.17,7,1.93,13.84,4.94,20.21a3.51,3.51,0,0,0,1.41,1.81c1.19.58,2.6-.34,3.31-1.46a10.93,10.93,0,0,0,1.23-6.14,36.53,36.53,0,0,0-2.9-14.08,24.76,24.76,0,0,0-9.15-11,23.49,23.49,0,0,0-17.4-2.88,28.91,28.91,0,0,0-15.25,9.15,16.86,16.86,0,0,0-4.11,7.22" transform="translate(-23.82 -29.83)"/><path class="cls-7" d="M212.1,237.8c-.08,0,0-.75-.4-2a8.46,8.46,0,0,0-3.1-4.5,8.24,8.24,0,0,0-7.74-1.11A8.07,8.07,0,0,0,197.1,233a8.07,8.07,0,0,0,0,9.59,8,8,0,0,0,3.76,2.85,8.21,8.21,0,0,0,7.74-1.12,8.35,8.35,0,0,0,3.1-4.49c.35-1.28.32-2,.4-2a1.69,1.69,0,0,1,0,.55,6.83,6.83,0,0,1-.17,1.55,8.49,8.49,0,0,1-3.06,4.83,8.75,8.75,0,1,1,0-13.85A8.47,8.47,0,0,1,212,235.7a7,7,0,0,1,.17,1.56A1.6,1.6,0,0,1,212.1,237.8Z" transform="translate(-23.82 -29.83)"/><path class="cls-7" d="M232.85,234.18c-.08,0,0-.75-.4-2a8.43,8.43,0,0,0-3.1-4.5,8.21,8.21,0,0,0-7.74-1.11,8.05,8.05,0,0,0-3.76,2.84,8.08,8.08,0,0,0,0,9.6,7.94,7.94,0,0,0,3.76,2.84,8.21,8.21,0,0,0,7.74-1.11,8.43,8.43,0,0,0,3.1-4.5c.35-1.27.32-2,.4-2a1.65,1.65,0,0,1,0,.54,7,7,0,0,1-.17,1.56,8.49,8.49,0,0,1-3.06,4.83,8.76,8.76,0,1,1,0-13.86,8.52,8.52,0,0,1,3.06,4.83,7,7,0,0,1,.17,1.56A1.6,1.6,0,0,1,232.85,234.18Z" transform="translate(-23.82 -29.83)"/><path class="cls-7" d="M215.75,234.48c-.08.17-1.2-.35-2.49.05s-1.94,1.43-2.11,1.33,0-.37.25-.81a3.09,3.09,0,0,1,1.66-1.2,3.06,3.06,0,0,1,2,.09C215.58,234.14,215.8,234.4,215.75,234.48Z" transform="translate(-23.82 -29.83)"/><path class="cls-7" d="M244.6,231.94c0,.2-2.79.31-6.23.27s-6.22-.25-6.22-.45,2.8-.31,6.23-.26S244.61,231.74,244.6,231.94Z" transform="translate(-23.82 -29.83)"/><path class="cls-1" d="M190.22,208.31a2.35,2.35,0,0,0,.13.83,4.16,4.16,0,0,0,1.31,1.88,5.78,5.78,0,0,0,3.15,1.29,15.74,15.74,0,0,0,4.17-.22,74.21,74.21,0,0,0,7.43-1.49c.93-.25,1.69-.46,2.21-.62l.59-.19.2-.08s-.07,0-.21,0l-.61.15-2.22.55c-1.88.45-4.5,1-7.42,1.44a15.86,15.86,0,0,1-4.12.23,5.68,5.68,0,0,1-3.07-1.21,4.08,4.08,0,0,1-1.33-1.79A7.31,7.31,0,0,1,190.22,208.31Z" transform="translate(-23.82 -29.83)"/><path class="cls-1" d="M188.28,210.29a8.08,8.08,0,0,0,.75,2.4,10.21,10.21,0,0,0,9.86,5.89,8.09,8.09,0,0,0,2.46-.47,4.6,4.6,0,0,0-.66.13,12.31,12.31,0,0,1-1.8.2,10.62,10.62,0,0,1-10.41-7.51C188.35,210.52,188.3,210.29,188.28,210.29Z" transform="translate(-23.82 -29.83)"/></g></svg>